<svg width="512" height="474" viewBox="0 0 512 474" fill="none" xmlns="http://www.w3.org/2000/svg">
<path d="M255.5 0.624979C256.202 0.625855 256.904 0.626731 257.627 0.627634C269.45 0.676143 280.627 1.60481 292 4.99998C292.781 5.23072 293.561 5.46146 294.365 5.6992C312.697 11.3373 329.085 20.8284 343 34C343.527 34.4914 344.054 34.9829 344.597 35.4892C351.281 41.7632 357.028 48.2569 362 56C362.838 55.8592 363.676 55.7185 364.54 55.5735C373.377 54.187 381.922 53.6477 390.875 53.6875C392.191 53.6924 393.506 53.6973 394.862 53.7024C404.281 53.816 412.918 54.4435 422 57C423.228 57.3403 424.457 57.6806 425.723 58.0312C444.953 63.9176 461.501 74.1088 476 88C476.748 88.6845 477.495 89.369 478.266 90.0742C489.363 100.57 496.784 113.196 503 127C503.725 128.584 503.725 128.584 504.465 130.199C514.659 154.399 515.806 184.973 508 210C507.679 211.036 507.679 211.036 507.351 212.092C497.331 243.208 475.694 268.478 447.036 283.964C437.627 288.752 427.712 292.082 417.438 294.437C416.368 294.684 416.368 294.684 415.276 294.935C410.118 296.01 405.266 296.129 400 296C400.015 296.542 400.031 297.083 400.047 297.642C400.169 305.654 399.426 313.562 398.671 321.528C398.527 323.075 398.384 324.621 398.242 326.168C397.856 330.342 397.464 334.515 397.07 338.688C396.824 341.299 396.579 343.91 396.334 346.521C395.48 355.639 394.62 364.757 393.756 373.875C392.952 382.36 392.16 390.847 391.374 399.334C390.697 406.637 390.011 413.939 389.318 421.241C388.905 425.595 388.495 429.949 388.095 434.305C387.719 438.397 387.331 442.489 386.935 446.58C386.792 448.078 386.653 449.576 386.518 451.075C386.333 453.127 386.133 455.177 385.93 457.227C385.822 458.373 385.715 459.519 385.603 460.699C384.89 464.601 383.8 467.462 382 471C378.916 473.056 378.284 473.251 374.803 473.26C373.513 473.271 373.513 473.271 372.197 473.281C371.252 473.279 370.307 473.277 369.334 473.274C368.33 473.279 367.327 473.285 366.293 473.29C362.914 473.305 359.535 473.306 356.157 473.306C353.741 473.314 351.325 473.322 348.909 473.332C342.335 473.354 335.76 473.362 329.186 473.367C325.082 473.371 320.978 473.377 316.873 473.384C305.512 473.404 294.151 473.42 282.789 473.423C282.062 473.423 281.335 473.424 280.586 473.424C279.112 473.424 277.638 473.425 276.163 473.425C275.432 473.425 274.7 473.425 273.946 473.426C273.213 473.426 272.48 473.426 271.726 473.426C259.85 473.43 247.975 473.457 236.099 473.494C223.91 473.532 211.72 473.551 199.531 473.552C192.685 473.552 185.84 473.561 178.995 473.59C172.558 473.617 166.122 473.618 159.685 473.602C157.32 473.6 154.955 473.607 152.59 473.623C149.366 473.643 146.144 473.633 142.92 473.615C141.98 473.628 141.039 473.641 140.07 473.655C135.73 473.599 133.6 473.416 129.956 470.891C127.645 467.475 127.171 465.221 126.782 461.127C126.713 460.471 126.645 459.814 126.574 459.138C126.433 457.768 126.301 456.396 126.18 455.024C125.903 451.906 125.556 448.795 125.228 445.683C124.978 443.109 124.732 440.536 124.488 437.962C124.35 436.527 124.212 435.093 124.073 433.659C123.703 429.814 123.336 425.97 122.97 422.125C122.663 418.899 122.354 415.673 122.045 412.448C121.317 404.836 120.591 397.224 119.868 389.613C119.124 381.786 118.374 373.96 117.622 366.135C116.973 359.383 116.327 352.631 115.685 345.879C115.303 341.86 114.919 337.841 114.532 333.823C114.168 330.048 113.809 326.273 113.453 322.498C113.322 321.12 113.19 319.742 113.056 318.364C112.33 310.886 111.803 303.516 112 296C110.724 296.044 109.448 296.088 108.133 296.133C102.832 296.127 98.0025 295.149 92.875 293.875C91.957 293.649 91.0391 293.423 90.0933 293.19C71.9509 288.559 56.1355 280.259 42 268C40.7722 266.971 40.7722 266.971 39.5195 265.922C17.4306 246.881 4.14345 219.682 6.04987e-06 191C-1.912 156.331 4.32409 123.783 27.5039 96.7461C48.6144 73.5212 74.2859 58.0159 106 54C110.853 53.7881 115.705 53.8149 120.563 53.8125C121.844 53.8002 123.126 53.788 124.447 53.7754C133.173 53.7622 141.405 54.5301 150 56C150.689 54.9645 150.689 54.9645 151.393 53.9082C169.689 26.8345 199.086 9.18366 230.712 2.4199C238.962 0.863385 247.122 0.599312 255.5 0.624979Z" fill="#FEFEFE"/>
</svg>
